<?xml version="1.0" encoding="utf-8"?>
<!-- Generator: Adobe Illustrator 20.1.0, SVG Export Plug-In . SVG Version: 6.00 Build 0)  -->
<svg version="1.1" id="Layer_1" xmlns="http://www.w3.org/2000/svg" xmlns:xlink="http://www.w3.org/1999/xlink" x="0px" y="0px"
	 viewBox="0 0 100 100" style="enable-background:new 0 0 100 100;" xml:space="preserve">
<style type="text/css">
	.st0{fill:none;stroke:#000000;stroke-width:3;stroke-miterlimit:10;}
</style>
<g>
	<path class="st0" d="M67.5,62.2c-0.7,1-1.4,1.9-2.3,2.8l4.9,15.6l-12-10.9c-1.2,0.5-2.4,0.8-3.7,1.1l-4.2,15.6L46,70.8
		c-1.3-0.3-2.5-0.6-3.7-1.1l-12,10.9L35.3,65c-0.8-0.8-1.6-1.8-2.3-2.8l-16.2,2.7l12.9-10.7c-0.2-1-0.3-2.1-0.4-3.2l-15.5-6.7
		l17.1-2.1c0.3-0.8,0.7-1.7,1.2-2.5l-9.6-14.3l15.8,7.6c0.7-0.5,1.3-0.9,2-1.3l-0.4-17.6l9.2,15.1c0.4,0,0.8,0,1.1,0
		c0.4,0,0.8,0,1.1,0l9.2-15.1l-0.4,17.6c0.7,0.4,1.4,0.8,2,1.3L78,25.5l-9.6,14.3c0.5,0.8,0.9,1.6,1.2,2.5l17.1,2.1L71.2,51
		c0,1.1-0.2,2.1-0.4,3.2l12.9,10.7L67.5,62.2z"/>
</g>
</svg>
