<?xml version="1.0" encoding="utf-8"?>
<!-- Generator: Adobe Illustrator 20.1.0, SVG Export Plug-In . SVG Version: 6.00 Build 0)  -->
<svg version="1.1" id="Layer_1" xmlns="http://www.w3.org/2000/svg" xmlns:xlink="http://www.w3.org/1999/xlink" x="0px" y="0px"
	 viewBox="0 0 100 100" style="enable-background:new 0 0 100 100;" xml:space="preserve">
<style type="text/css">
	.st0{fill:none;stroke:#000000;stroke-width:3;stroke-miterlimit:10;}
</style>
<g>
	<path class="st0" d="M90.9,68c0,1.3-0.2,2.5-0.7,3.6H31.4c-0.2-0.2-0.4-0.4-0.6-0.7c-0.2,0.2-0.4,0.5-0.7,0.7H4
		c0.3-4.6,4.1-8.3,8.7-8.4c0.4-5.3,4.9-9.6,10.3-9.6c0.4,0,0.9,0,1.3,0.1c0.7-1,1.4-2,2.2-3c0.2-0.5,0.3-1.1,0.5-1.6
		c0.5-1.4,1.2-2.6,1.9-3.8c1.9-2.9,4.5-5.3,7.6-6.8c2.6-1.3,5.6-2.1,8.8-2.1c6.1,0,11.6,2.8,15.2,7.2c1.2,0.6,2.4,1.2,3.5,2
		c5.9,2,10.4,7,11.6,13.2c1.1-0.6,2.4-1,3.7-1.1c0.3,0,0.7-0.1,1.1-0.1C86.2,57.6,90.9,62.2,90.9,68z"/>
	<path class="st0" d="M29,45.3c-0.8,1.2-1.4,2.5-1.9,3.8l-6.5-2.8L29,45.3z"/>
	<polygon class="st0" points="46,71.6 37.2,79.5 39.7,71.6 	"/>
	<polygon class="st0" points="60.8,71.6 57.1,85.4 53.3,71.6 	"/>
	<polygon class="st0" points="77,79.5 68.2,71.6 74.5,71.6 	"/>
	<path class="st0" d="M77.7,56.2l1.7,1.5c-1.3,0.1-2.6,0.5-3.7,1.1c-1.2-6.2-5.7-11.2-11.6-13.2c-1.1-0.7-2.3-1.4-3.5-2
		c-3.6-4.4-9-7.2-15.2-7.2c-3.2,0-6.2,0.8-8.8,2.1l-7.4-11L45,35.1c0.7-0.5,1.3-0.9,2-1.3l-0.4-17.6l9.2,15.1c0.4,0,0.8,0,1.1,0
		c0.4,0,0.8,0,1.1,0l9.2-15.1l-0.4,17.6c0.7,0.4,1.4,0.8,2,1.3l15.8-7.6l-9.6,14.3c0.5,0.8,0.9,1.6,1.2,2.4l17.1,2.1L78,53.1
		C78,54.1,77.9,55.2,77.7,56.2z"/>
</g>
</svg>
