<?xml version="1.0" encoding="utf-8"?>
<!-- Generator: Adobe Illustrator 20.1.0, SVG Export Plug-In . SVG Version: 6.00 Build 0)  -->
<svg version="1.1" id="Layer_1" xmlns="http://www.w3.org/2000/svg" xmlns:xlink="http://www.w3.org/1999/xlink" x="0px" y="0px"
	 viewBox="0 0 100 100" style="enable-background:new 0 0 100 100;" xml:space="preserve">
<style type="text/css">
	.st0{fill:none;stroke:#000000;stroke-width:3;stroke-miterlimit:10;}
</style>
<g>
	<path class="st0" d="M92,53.1c0,1.3-0.2,2.5-0.7,3.6H32.6c-0.2-0.2-0.4-0.4-0.6-0.7c-0.2,0.2-0.4,0.5-0.7,0.7H5.2
		c0.3-4.6,4.1-8.3,8.7-8.4c0.4-5.3,4.9-9.6,10.3-9.6c0.4,0,0.9,0,1.3,0.1c0.7-1,1.4-2,2.2-3c0.2-0.5,0.3-1.1,0.5-1.6
		c0.5-1.4,1.2-2.6,1.9-3.8c1.9-2.9,4.5-5.3,7.6-6.8c2.6-1.3,5.6-2.1,8.8-2.1c6.1,0,11.6,2.8,15.2,7.2c1.2,0.6,2.4,1.2,3.5,2
		c5.9,2,10.4,7,11.6,13.2c1.1-0.6,2.4-1,3.7-1.1c0.3,0,0.7-0.1,1.1-0.1C87.3,42.7,92,47.4,92,53.1z"/>
	<line class="st0" x1="6.4" y1="79.6" x2="19.3" y2="63.3"/>
	<line class="st0" x1="19.3" y1="79.6" x2="32.2" y2="63.3"/>
	<line class="st0" x1="32.2" y1="79.6" x2="45.2" y2="63.3"/>
	<line class="st0" x1="45.2" y1="79.6" x2="58.1" y2="63.3"/>
	<line class="st0" x1="58.1" y1="79.6" x2="71" y2="63.3"/>
	<line class="st0" x1="71" y1="79.6" x2="83.9" y2="63.3"/>
</g>
</svg>
